<?xml version="1.0" encoding="utf-8"?>
<!-- Generator: Adobe Illustrator 16.0.3, SVG Export Plug-In . SVG Version: 6.00 Build 0)  -->
<!DOCTYPE svg PUBLIC "-//W3C//DTD SVG 1.1//EN" "http://www.w3.org/Graphics/SVG/1.1/DTD/svg11.dtd">
<svg version="1.1" id="Layer_1" xmlns="http://www.w3.org/2000/svg" xmlns:xlink="http://www.w3.org/1999/xlink" x="0px" y="0px"
	 width="789.5px" height="116.252px" viewBox="0 0 789.5 116.252" enable-background="new 0 0 789.5 116.252" xml:space="preserve">
<g id="Layer_1_1_">
	<rect fill="#6E1A18" width="373.143" height="121.293"/>
	<path fill="#6E1A18" d="M782.505,54.742c-0.701-0.656-2.365-1.718-4.99-3.184c-1.771-1.007-2.657-2.003-2.657-2.988
		c0-1.378,0.842-2.298,2.526-2.757c1.422-0.175,2.834-0.361,4.234-0.558c0.416-0.066,0.623-0.219,0.623-0.46
		c0-0.306-0.203-1.203-0.607-2.692c-0.403-1.488-0.678-2.374-0.819-2.659c-0.144-0.284-0.365-0.427-0.675-0.427
		c-3.414,0-6.233,0.821-8.469,2.463c-2.473,1.838-3.709,4.399-3.709,7.681c0,2.517,0.908,4.553,2.725,6.106
		c0.438,0.373,2.136,1.368,5.091,2.988c1.813,1.006,2.725,2.112,2.725,3.314c0,2.539-2.068,3.809-6.205,3.809
		c0.021,0-0.307-0.031-0.986-0.098c-0.522-0.066-0.93-0.066-1.213,0c-0.395,0.088-0.592,0.271-0.592,0.558
		c0,0.46,0.061,1.171,0.18,2.134c0.121,0.965,0.185,1.688,0.185,2.166c0,0.898,0.186,1.437,0.557,1.609
		c0.176,0.066,0.92,0.1,2.232,0.1c3.393,0,6.271-0.896,8.635-2.69c2.604-1.972,3.906-4.587,3.906-7.847
		C785.199,58.638,784.298,56.449,782.505,54.742 M756.193,52.444c-4.511,0.657-8.384,0.985-11.621,0.985
		c-0.787,0-1.183-0.229-1.183-0.688c0-2.014,0.781-3.83,2.349-5.45c1.563-1.619,3.354-2.429,5.367-2.429
		c1.793,0,3.407,0.701,4.842,2.101c1.434,1.401,2.147,3.009,2.147,4.826C758.095,52.05,757.46,52.269,756.193,52.444
		 M761.873,43.088c-2.758-3.02-6.193-4.53-10.309-4.53c-4.423,0-8.152,1.74-11.193,5.22c-2.891,3.348-4.334,7.277-4.334,11.785
		c0,5.055,1.51,9.099,4.529,12.129c3.021,3.031,7.067,4.547,12.146,4.547c5.033,0,9.16-1.707,12.377-5.121
		c0.351-0.372,0.525-0.623,0.525-0.756c0-0.108-0.386-0.902-1.15-2.379c-0.766-1.479-1.176-2.237-1.229-2.281
		c-0.058-0.044-0.173-0.066-0.349-0.066c-0.35,0.285-0.699,0.569-1.049,0.854c-2.889,2.229-6.063,3.348-9.52,3.348
		c-2.017,0-3.896-0.646-5.648-1.937c-1.838-1.357-2.898-2.998-3.184-4.924c12.604-0.941,19.379-1.587,20.319-1.938
		c1.4-0.547,2.103-1.63,2.103-3.25C765.912,49.588,764.564,46.021,761.873,43.088 M734.015,40.954
		c-2.539-1.553-5.34-2.33-8.401-2.33c-4.574,0-8.396,1.663-11.457,4.989c-2.978,3.24-4.465,7.179-4.465,11.818
		c0,4.552,1.521,8.47,4.563,11.753c3.107,3.367,6.914,5.055,11.424,5.055c1.029,0,2.615-0.273,4.761-0.82
		c2.563-0.656,3.842-1.324,3.842-2.003c0-0.634-0.164-1.783-0.492-3.447c-0.352-1.838-0.668-2.757-0.951-2.757
		c0.174,0-0.449,0.361-1.873,1.083c-1.422,0.724-2.867,1.083-4.332,1.083c-2.647,0-4.891-1.006-6.729-3.02
		c-1.793-1.947-2.691-4.256-2.691-6.927c0-2.713,0.898-5.066,2.691-7.058c1.797-1.991,4.039-2.987,6.729-2.987
		c1.183,0,2.271,0.219,3.267,0.657s1.985,0.875,2.973,1.313c0.195,0,0.547-0.832,1.051-2.495c0.502-1.663,0.754-2.736,0.754-3.217
		C734.673,41.447,734.455,41.217,734.015,40.954 M705.375,40.429c-0.416,0-1.035,0.055-1.855,0.164
		c-0.817,0.11-1.438,0.164-1.854,0.164s-1.033-0.054-1.855-0.164c-0.817-0.109-1.428-0.164-1.819-0.164
		c-0.459,0-0.689,0.187-0.689,0.559c0,1.707,0.125,4.268,0.377,7.682s0.379,5.975,0.379,7.682c0,1.532-0.038,3.813-0.114,6.842
		c-0.076,3.033-0.113,5.304-0.113,6.813c0,0.898,0.229,1.349,0.688,1.349h6.402c0.394,0,0.59-0.23,0.59-0.689
		c0-1.576-0.033-3.956-0.098-7.141c-0.066-3.187-0.1-5.575-0.1-7.172c0-1.707,0.104-4.262,0.313-7.666
		c0.207-3.403,0.311-5.947,0.311-7.632C705.931,40.637,705.746,40.429,705.375,40.429 M704.833,29.202
		c-0.887-0.766-1.943-1.149-3.168-1.149c-1.228,0-2.277,0.372-3.152,1.116c-0.938,0.788-1.412,1.784-1.412,2.987
		c0,2.692,1.521,4.038,4.564,4.038c2.998,0,4.496-1.346,4.496-4.038C706.162,30.953,705.718,29.968,704.833,29.202 M691.601,40.396
		c-0.698,0-1.752,0.039-3.149,0.115c-1.4,0.077-2.461,0.115-3.187,0.115c-0.327,0-0.491,0.164-0.491,0.492
		c0,0.723,0.069,1.806,0.215,3.25c0.143,1.445,0.213,2.528,0.213,3.25c0,2.671-0.088,4.553-0.264,5.647
		c-0.132,0.81-1.14,2.769-3.021,5.876c-1.904,3.174-3.098,4.76-3.578,4.76c-0.504,0-1.811-1.619-3.924-4.858
		c-2.111-3.239-3.223-5.274-3.332-6.106c-0.219-1.663-0.328-3.502-0.328-5.516c0-0.7,0.043-1.734,0.131-3.102
		c0.088-1.367,0.131-2.401,0.131-3.102c0-0.438-0.194-0.657-0.59-0.657c-0.723,0-1.801-0.032-3.231-0.098
		c-1.437-0.066-2.515-0.099-3.234-0.099c-0.482,0-0.721,0.242-0.721,0.723c0,0.897-0.023,2.243-0.066,4.037
		c-0.045,1.795-0.063,3.141-0.063,4.038c0,2.889,0.262,5.023,0.784,6.402c0.396,1.007,2.244,3.819,5.552,8.437
		c3.391,4.749,5.395,7.222,6.008,7.419c0.459,0.131,1.422,0.197,2.889,0.197c1.531,0,2.451-0.066,2.756-0.197
		c0.638-0.263,2.605-2.834,5.91-7.715c3.217-4.771,4.99-7.649,5.318-8.634c0.194-0.503,0.295-2.298,0.295-5.383
		C692.621,43.493,692.281,40.396,691.601,40.396 M658.791,39.904c-1.336,0-2.43,0.131-3.283,0.394
		c-1.029,0.284-2.035,0.722-3.021,1.313c-0.896,0.569-1.795,1.138-2.691,1.707c-0.065,0.044-0.119,0.066-0.164,0.066
		c-0.285,0-0.479-0.646-0.59-1.937c-0.111-1.291-0.34-1.938-0.689-1.938c0.177,0-0.92,0.219-3.282,0.656
		c-1.468,0.176-2.604,0.307-3.414,0.394c-0.283,0.11-0.429,0.296-0.429,0.558c0,0.088,0.023,0.219,0.066,0.394
		c1.006,3.283,1.51,7.628,1.51,13.033c0,1.795-0.026,4.479-0.082,8.043c-0.055,3.566-0.082,6.237-0.082,8.012
		c0,0.547,0.252,0.819,0.757,0.819c0.68,0,1.706,0.013,3.086,0.033c1.379,0.021,2.405,0.03,3.084,0.03
		c0.504,0,0.756-0.295,0.756-0.885c0-1.227-0.049-3.088-0.146-5.582c-0.097-2.494-0.146-4.354-0.146-5.58v-3.61
		c0-2.976,0.229-4.935,0.688-5.876c0.769-1.553,2.529-2.331,5.287-2.331c0.479,0,1.187,0.05,2.117,0.148
		c0.93,0.099,1.625,0.148,2.084,0.148c0.373,0,0.59-0.251,0.656-0.755c0.325-1.97,0.491-4.158,0.491-6.566
		C661.349,40.134,660.498,39.904,658.791,39.904 M628.931,52.444c-4.51,0.657-8.383,0.985-11.62,0.985
		c-0.787,0-1.183-0.229-1.183-0.688c0-2.014,0.783-3.83,2.349-5.45c1.563-1.619,3.354-2.429,5.366-2.429
		c1.793,0,3.408,0.701,4.843,2.101c1.434,1.401,2.149,3.009,2.149,4.826C630.835,52.05,630.201,52.269,628.931,52.444
		 M634.611,43.088c-2.758-3.02-6.193-4.53-10.31-4.53c-4.422,0-8.151,1.74-11.192,5.22c-2.892,3.348-4.334,7.277-4.334,11.785
		c0,5.055,1.512,9.099,4.528,12.129c3.021,3.031,7.07,4.547,12.146,4.547c5.033,0,9.158-1.707,12.377-5.121
		c0.35-0.372,0.522-0.623,0.522-0.756c0-0.108-0.383-0.902-1.146-2.379c-0.769-1.479-1.178-2.237-1.232-2.281
		c-0.053-0.044-0.17-0.066-0.344-0.066c-0.35,0.285-0.701,0.569-1.051,0.854c-2.892,2.229-6.063,3.348-9.521,3.348
		c-2.012,0-3.895-0.646-5.645-1.937c-1.838-1.357-2.9-2.998-3.187-4.924c12.605-0.941,19.38-1.587,20.32-1.938
		c1.4-0.547,2.103-1.63,2.103-3.25C638.648,49.588,637.302,46.021,634.611,43.088 M606.166,28.25
		c-1.248-0.897-3.109-1.663-5.58-2.298c-2.277-0.569-4.291-0.854-6.041-0.854c-4.137,0-7.508,1.182-10.111,3.546
		c-2.67,2.451-4.006,5.712-4.006,9.783c0,3.764,1.379,6.762,4.138,8.994c0.108,0.11,2.659,1.587,7.647,4.432
		c2.736,1.576,4.104,3.436,4.104,5.581c0,4.377-3.394,6.566-10.179,6.566c-0.547,0-1.36-0.056-2.442-0.165
		c-1.084-0.107-1.89-0.164-2.412-0.164c-0.33,0-0.494,0.154-0.494,0.46c0,0.175,0.033,0.361,0.1,0.56
		c0.371,1.313,0.646,2.299,0.82,2.955c0.307,1.598,0.504,2.813,0.59,3.644c0.177,0.524,1.445,0.788,3.81,0.788
		c5.076,0,9.354-1.271,12.838-3.809c3.873-2.824,5.811-6.687,5.811-11.587c0-3.83-1.412-6.872-4.235-9.126
		c-0.505-0.372-3.13-1.794-7.88-4.268c-2.821-1.466-4.231-3.184-4.231-5.154c0-3.545,2.014-5.318,6.041-5.318
		c1.377,0,3.135,0.389,5.268,1.165c2.134,0.777,3.189,1.166,3.168,1.166c0.22,0,0.396-0.099,0.525-0.296
		c0.611-1.247,1.039-2.21,1.279-2.889c0.768-1.466,1.366-2.56,1.807-3.282C606.382,28.48,606.275,28.338,606.166,28.25
		 M557.25,54.742c-0.699-0.656-2.363-1.718-4.99-3.184c-1.77-1.007-2.658-2.003-2.658-2.988c0-1.378,0.845-2.298,2.527-2.757
		c1.422-0.175,2.834-0.361,4.236-0.558c0.414-0.066,0.623-0.219,0.623-0.46c0-0.306-0.203-1.203-0.607-2.692
		c-0.406-1.488-0.678-2.374-0.82-2.659c-0.143-0.284-0.364-0.427-0.674-0.427c-3.414,0-6.235,0.821-8.469,2.463
		c-2.473,1.838-3.711,4.399-3.711,7.681c0,2.517,0.908,4.553,2.725,6.106c0.439,0.373,2.138,1.368,5.09,2.988
		c1.816,1.006,2.726,2.112,2.726,3.314c0,2.539-2.068,3.809-6.203,3.809c0.021,0-0.307-0.031-0.986-0.098
		c-0.522-0.066-0.93-0.066-1.215,0c-0.393,0.088-0.59,0.271-0.59,0.558c0,0.46,0.059,1.171,0.18,2.134
		c0.121,0.965,0.183,1.688,0.183,2.166c0,0.898,0.186,1.437,0.559,1.609c0.174,0.066,0.92,0.1,2.232,0.1
		c3.393,0,6.27-0.896,8.635-2.69c2.604-1.972,3.906-4.587,3.906-7.847C559.941,58.638,559.044,56.449,557.25,54.742 M538.652,63.983
		c-0.064-2.771-0.101-4.842-0.101-6.223c0-0.722,0.023-1.838,0.066-3.348c0.043-1.51,0.063-2.626,0.063-3.349
		c0-3.786-0.559-6.554-1.674-8.305c-1.555-2.364-4.354-3.546-8.404-3.546c-2.102,0-4.225,0.613-6.368,1.839
		c-2.015,1.138-3.697,2.582-5.056,4.333c-1.379-4.114-4.586-6.172-9.619-6.172c-1.858,0-3.721,0.482-5.579,1.445
		c-1.291,0.656-2.582,1.543-3.873,2.659l-1.644,1.444c-0.176,0-0.377-0.771-0.606-2.313c-0.229-1.543-0.478-2.314-0.736-2.314
		l-0.264,0.032c-1.445,0.263-2.527,0.504-3.25,0.723c-1.556,0.241-2.736,0.405-3.548,0.492c-0.194,0.044-0.295,0.208-0.295,0.492
		c0,0.176,0.033,0.406,0.101,0.69c0.854,3.983,1.278,7.977,1.278,11.982c0,1.773-0.012,4.438-0.03,7.994
		c-0.023,3.556-0.033,6.221-0.033,7.993c0,0.591,0.219,0.887,0.656,0.887h6.104c0.502,0,0.754-0.316,0.754-0.952
		c0-1.071-0.01-2.69-0.03-4.858c-0.021-2.166-0.033-3.797-0.033-4.892v-9.585c0-1.291,1.051-2.571,3.149-3.841
		c1.904-1.16,3.545-1.74,4.927-1.74c2.342,0,3.928,0.745,4.76,2.233c0.592,1.05,0.887,2.812,0.887,5.285v7.911
		c0,1.053-0.033,2.633-0.098,4.744c-0.066,2.111-0.103,3.692-0.103,4.743c0,0.636,0.222,0.952,0.658,0.952
		c0.351,0,0.863-0.021,1.543-0.064c0.678-0.045,1.191-0.065,1.543-0.065c0.396,0,0.967,0.033,1.724,0.099
		c0.756,0.066,1.33,0.1,1.725,0.1s0.59-0.295,0.59-0.885c0-1.072-0.043-2.684-0.131-4.826c-0.088-2.146-0.131-3.754-0.131-4.825
		c0-4.531,0.043-7.649,0.131-9.356c0.066-1.335,0.996-2.692,2.791-4.071c1.729-1.313,3.283-1.97,4.662-1.97
		c2.188,0,3.709,0.46,4.563,1.379c0.744,0.854,1.203,2.408,1.38,4.662c0.043,0.635,0.065,3.72,0.065,9.258
		c0,1.006-0.039,2.51-0.115,4.515c-0.077,2.002-0.114,3.507-0.114,4.514c0,1.029,0.229,1.543,0.688,1.543
		c0.371,0,0.931-0.021,1.674-0.063c0.744-0.045,1.302-0.066,1.675-0.066c0.352,0,0.858,0.033,1.526,0.1
		c0.668,0.065,1.166,0.1,1.494,0.1c0.502,0,0.754-0.428,0.754-1.28C538.75,68.825,538.716,66.752,538.652,63.983 M482.466,40.429
		c-0.416,0-1.035,0.055-1.854,0.164c-0.822,0.11-1.439,0.164-1.855,0.164s-1.035-0.054-1.854-0.164
		c-0.82-0.109-1.431-0.164-1.822-0.164c-0.459,0-0.689,0.187-0.689,0.559c0,1.707,0.125,4.268,0.377,7.682
		c0.253,3.414,0.378,5.975,0.378,7.682c0,1.532-0.035,3.813-0.113,6.842c-0.076,3.033-0.115,5.304-0.115,6.813
		c0,0.898,0.229,1.349,0.689,1.349h6.399c0.396,0,0.592-0.23,0.592-0.689c0-1.576-0.032-3.956-0.1-7.141
		c-0.064-3.187-0.098-5.575-0.098-7.172c0-1.707,0.104-4.262,0.313-7.666c0.207-3.403,0.313-5.947,0.313-7.632
		C483.025,40.637,482.837,40.429,482.466,40.429 M481.923,29.202c-0.885-0.766-1.94-1.149-3.168-1.149
		c-1.225,0-2.274,0.372-3.149,1.116c-0.941,0.788-1.41,1.784-1.41,2.987c0,2.692,1.52,4.038,4.563,4.038
		c2.998,0,4.498-1.346,4.498-4.038C483.253,30.953,482.81,29.968,481.923,29.202 M459.24,62.26
		c-1.729,2.079-3.873,3.118-6.437,3.118c-2.625,0-4.813-1.018-6.563-3.053c-1.687-1.947-2.527-4.245-2.527-6.894
		c0-2.669,0.842-4.989,2.527-6.959c1.752-2.057,3.938-3.086,6.563-3.086c2.627,0,4.781,1.04,6.47,3.119
		c1.598,1.926,2.396,4.235,2.396,6.926C461.667,58.036,460.859,60.313,459.24,62.26 M467.347,40.659
		c-1.619-0.328-2.725-0.493-3.313-0.493c-0.371,0-0.681,0.69-0.918,2.069c-0.242,1.378-0.431,2.068-0.562,2.068
		c-0.063,0-0.131-0.033-0.194-0.099c-0.787-0.831-1.367-1.466-1.74-1.904c-2.494-2.319-5.416-3.479-8.767-3.479
		c-4.747,0-8.579,1.652-11.487,4.957c-2.781,3.173-4.17,7.189-4.17,12.047c0,4.313,1.379,8.087,4.137,11.326
		c2.91,3.393,6.488,5.088,10.734,5.088c1.729,0,3.457-0.438,5.188-1.313c1.115-0.546,2.318-1.346,3.611-2.396
		c1.049-0.854,1.641-1.28,1.771-1.28c0.197,0,0.404,0.767,0.623,2.298c0.219,1.532,0.535,2.299,0.951,2.299
		c0.592,0,1.494-0.072,2.709-0.215c1.215-0.142,2.123-0.213,2.725-0.213c0.604,0,0.894-0.316,0.869-0.952l-0.03-0.46
		c-0.55-9.605-0.82-14.521-0.82-14.74c0-3.632,0.428-7.955,1.279-12.967c0.065-0.306,0.1-0.503,0.1-0.591
		C470.041,41.403,469.142,41.053,467.347,40.659 M431.746,25.361c-0.396,0-0.996,0.033-1.805,0.098
		c-0.812,0.066-1.425,0.099-1.841,0.099c-0.395,0-0.983-0.033-1.771-0.099c-0.787-0.065-1.379-0.098-1.773-0.098
		c-0.459,0-0.688,0.219-0.688,0.657c0,2.342,0.113,5.881,0.344,10.619c0.23,4.739,0.346,8.29,0.346,10.653
		c0,2.605-0.021,6.506-0.063,11.703c-0.045,5.197-0.066,9.089-0.066,11.671c0,0.503,0.197,0.755,0.59,0.755h6.271
		c0.35,0,0.525-0.252,0.525-0.755c0-2.582-0.046-6.474-0.134-11.671c-0.086-5.197-0.131-9.098-0.131-11.703
		c0-5.843,0.242-12.836,0.724-20.977l0.032-0.427C432.326,25.536,432.138,25.361,431.746,25.361 M419.123,60.963
		c-1.313-1.739-2.035-2.61-2.166-2.61c-0.109,0-0.734,0.537-1.871,1.609c-1.357,1.291-2.693,2.287-4.006,2.987
		c-1.992,1.073-4.062,1.608-6.203,1.608c-4.313,0-7.672-1.695-10.08-5.091c-2.123-3.02-3.184-6.771-3.184-11.26
		c0-4.486,1.072-8.207,3.217-11.161c2.408-3.305,5.777-4.957,10.111-4.957c2.274,0,4.354,0.536,6.235,1.608
		c1.14,0.657,2.354,1.642,3.646,2.955c1.049,1.072,1.717,1.608,2.002,1.608c0.24,0,0.938-0.913,2.1-2.741
		c1.16-1.827,1.74-2.927,1.74-3.299c0-0.306-0.176-0.688-0.525-1.147c-3.633-4.486-8.764-6.73-15.395-6.73
		c-6.545,0-11.81,2.43-15.791,7.288c-3.742,4.509-5.614,10.111-5.614,16.808s1.839,12.278,5.516,16.743
		c3.939,4.793,9.191,7.189,15.759,7.189c6.303,0,11.588-2.473,15.854-7.419c0.416-0.482,0.625-0.854,0.625-1.117
		C421.091,63.661,420.435,62.703,419.123,60.963"/>
	<path fill="#FFFFFF" d="M364.922,63.672c-0.352,0-0.854,0.063-1.51,0.197c-0.811,0.131-1.313,0.208-1.51,0.229
		c-4.115,0.395-10.21,0.59-18.286,0.59c-0.395,0-0.59-2.43-0.59-7.289c0-1.137,0.01-2.866,0.032-5.186v-5.187
		c0-2.342,0.088-5.844,0.263-10.505c0.175-4.662,0.263-8.152,0.263-10.472c0-0.416-0.263-0.624-0.788-0.624
		c-0.394,0-1.007,0.033-1.839,0.098c-0.832,0.066-1.444,0.099-1.838,0.099c-0.416,0-1.029-0.033-1.838-0.099
		c-0.811-0.065-1.412-0.098-1.806-0.098c-0.547,0-0.821,0.241-0.821,0.722c0,2.539,0.115,6.342,0.345,11.408
		c0.23,5.067,0.345,8.869,0.345,11.408c0,2.407-0.082,6.018-0.246,10.833c-0.165,4.813-0.247,8.415-0.247,10.802
		c0,0.547,0.274,0.819,0.821,0.819c1.532,0,3.819-0.033,6.861-0.101c3.042-0.064,5.329-0.099,6.861-0.099
		c1.62,0,4.049,0.093,7.288,0.279c3.239,0.187,5.667,0.278,7.288,0.278c0.612,0,0.995-0.316,1.149-0.951
		c0.328-1.291,0.492-3.469,0.492-6.533C365.611,63.88,365.381,63.672,364.922,63.672 M311.625,54.217h-3.381
		c-2.058,0-3.13-0.011-3.218-0.033c-1.663-0.131-2.495-0.569-2.495-1.313c0-0.547,2.266-6.598,6.796-18.154
		c0.788,1.532,2.134,4.75,4.038,9.652c1.969,5.055,2.954,7.901,2.954,8.535C316.319,53.78,314.754,54.217,311.625,54.217
		 M321.736,45.551c-4.662-11.971-7.255-18.57-7.78-19.796c-0.351-0.809-0.624-1.214-0.821-1.214c-0.372,0-0.958,0.06-1.756,0.18
		c-0.8,0.121-1.396,0.181-1.789,0.181c-0.416,0-1.029-0.055-1.839-0.164c-0.81-0.11-1.423-0.165-1.838-0.165
		c-0.307,0-0.591,0.416-0.854,1.248c-1.05,2.823-1.882,4.935-2.495,6.336c-3.436,8.448-5.493,13.558-6.171,15.33l-8.043,21.995
		c-0.307,0.769-0.46,1.261-0.46,1.479c0,0.307,0.219,0.46,0.657,0.46h7.386c0.481,0,1.165-1.651,2.052-4.957
		c0.886-3.304,1.723-4.989,2.511-5.055c0.503-0.046,2.561-0.066,6.172-0.066h5.187c3.414,0,5.526,0.021,6.335,0.066
		c0.985,0.044,1.954,1.723,2.906,5.038c0.952,3.313,1.734,4.974,2.347,4.974c0.415,0,1.039-0.032,1.871-0.099s1.455-0.1,1.871-0.1
		s1.023,0.032,1.822,0.1c0.799,0.064,1.406,0.099,1.822,0.099c0.526,0,0.788-0.131,0.788-0.396
		C331.617,70.872,328.323,62.381,321.736,45.551 M284.508,59.403c-0.186-5.033-0.279-8.811-0.279-11.326
		c0-2.45,0.087-6.127,0.263-11.03c0.175-4.902,0.262-8.579,0.262-11.03c0-0.438-0.284-0.657-0.853-0.657
		c-0.394,0-0.985,0.033-1.773,0.099c-0.788,0.065-1.379,0.098-1.773,0.098c-0.438,0-1.083-0.033-1.936-0.098
		c-0.854-0.066-1.489-0.099-1.904-0.099c-0.504,0-0.755,0.274-0.755,0.821c0,2.429,0.114,6.079,0.344,10.948
		c0.23,4.87,0.345,8.519,0.345,10.948c0,2.517-0.115,6.287-0.345,11.311c-0.23,5.022-0.344,8.78-0.344,11.275
		c0,0.504,0.273,0.755,0.82,0.755c0.394,0,0.996-0.033,1.806-0.099c0.81-0.066,1.422-0.101,1.838-0.101
		c0.394,0,0.996,0.033,1.806,0.101c0.809,0.063,1.411,0.099,1.805,0.099c0.635,0,0.952-0.229,0.952-0.688
		C284.787,68.213,284.694,64.438,284.508,59.403 M253.912,49.03c-2.408,0-4.651-0.054-6.73-0.164
		c-0.898-0.065-1.543-0.12-1.937-0.164c-0.219-0.044-0.361-0.087-0.427-0.131V42.3c0-5.143,0.077-8.306,0.229-9.488
		c0.066-0.569,1.871-0.853,5.417-0.853c4.377,0,7.408,0.492,9.093,1.477c2.276,1.335,3.414,3.984,3.414,7.944
		C262.972,46.481,259.952,49.03,253.912,49.03 M268.044,62.358c-2.615-5.518-3.923-8.426-3.923-8.732
		c0-0.262,0.208-0.536,0.624-0.82c2.495-1.773,4.202-3.644,5.121-5.614c0.875-1.86,1.313-4.41,1.313-7.649
		c0-4.705-1.619-8.338-4.857-10.899c-2.934-2.319-6.828-3.48-11.688-3.48c-1.86,0-4.667,0.05-8.42,0.148
		c-3.754,0.099-6.572,0.148-8.454,0.148c-0.94,0-1.399,0.219-1.378,0.656l0.033,0.526c0.503,7.835,0.755,15.21,0.755,22.126
		c0,2.429-0.115,6.079-0.345,10.948c-0.23,4.87-0.345,8.52-0.345,10.948c0,0.504,0.274,0.755,0.821,0.755
		c0.372,0,0.941-0.033,1.707-0.1c0.766-0.065,1.335-0.1,1.707-0.1c0.46,0,1.133,0.051,2.019,0.148
		c0.886,0.098,1.548,0.146,1.986,0.146s0.657-0.229,0.657-0.688c0-1.513-0.072-3.791-0.214-6.847
		c-0.142-3.053-0.213-5.346-0.213-6.875c0-1.05,0.229-1.609,0.688-1.674c0.569-0.087,2.364-0.131,5.384-0.131
		c1.707,0,2.703,0.011,2.987,0.032c1.27,0.176,2.068,0.657,2.397,1.445c3.283,7.726,5.273,12.333,5.974,13.821
		c0.263,0.549,0.646,0.82,1.149,0.82c0.46,0,1.144-0.033,2.052-0.1c0.908-0.065,1.592-0.1,2.052-0.1c0.415,0,1.05,0.033,1.904,0.1
		c0.854,0.065,1.488,0.1,1.904,0.1c0.35,0,0.525-0.087,0.525-0.264C271.967,70.808,270.659,67.874,268.044,62.358 M231.408,64
		l-0.493,0.033c-7.069,0.524-11.37,0.786-12.901,0.786l-3.61,0.033c-2.189,0-3.558-0.229-4.104-0.688
		c-0.701-0.569-1.05-1.991-1.05-4.269v-4.858c0-1.838-0.012-2.681-0.033-2.528c0.131-0.853,0.634-1.313,1.51-1.379
		c0.963-0.087,3.25-0.131,6.861-0.131c4.289,0,7.047,0.066,8.273,0.197c1.685,0.153,2.659,0.229,2.921,0.229
		c0.657,0,0.985-0.197,0.985-0.591c0-0.722,0.082-1.806,0.246-3.25c0.164-1.445,0.247-2.517,0.247-3.217
		c0-0.438-0.229-0.635-0.689-0.591c-1.817,0.175-3.393,0.285-4.728,0.328c-3.414,0.153-7.266,0.23-11.556,0.23h-1.116
		c-0.481,0.022-0.853,0.033-1.116,0.033c-0.94,0-1.51-0.339-1.707-1.018c-0.065-0.218-0.098-0.996-0.098-2.331v-4.891
		c0-1.904,0.235-3.097,0.705-3.578c0.471-0.481,1.603-0.723,3.398-0.723c1.904,0,4.744,0.105,8.519,0.312
		c3.775,0.209,6.593,0.312,8.453,0.312c0.48,0,0.722-0.251,0.722-0.755c0-0.7-0.229-2.495-0.689-5.384
		c-0.088-0.634-0.646-0.952-1.674-0.952c-1.467,0-3.66,0.044-6.582,0.132c-2.922,0.087-5.116,0.131-6.582,0.131
		c-1.532,0-3.83-0.044-6.894-0.131c-3.064-0.088-5.362-0.132-6.894-0.132c-0.591,0-0.876,0.252-0.854,0.755l0.033,0.46
		c0.197,3.479,0.317,6.095,0.361,7.846c0.263,6.807,0.394,11.457,0.394,13.952c0,2.451-0.137,6.133-0.41,11.046
		c-0.274,4.914-0.41,8.597-0.41,11.047c0,0.636,0.361,0.952,1.083,0.952c1.597,0,4.005-0.044,7.222-0.131
		c3.217-0.087,5.625-0.133,7.222-0.133c5.647,0,9.816,0.195,12.508,0.592c0.612,0.088,1.028,0.132,1.247,0.132
		c0.46,0,0.744-0.196,0.854-0.591c0.24-1.512,0.394-2.659,0.459-3.447c0.044-0.175,0.165-0.678,0.361-1.51
		c0.175-0.657,0.263-1.16,0.263-1.512C232.064,64.229,231.845,63.956,231.408,64 M186.219,50.212
		c-1.707,1.904-4.093,2.856-7.156,2.856c-5.472,0-8.81-0.12-10.013-0.361c-0.482-0.109-0.722-0.263-0.722-0.459
		c0-0.92-0.028-2.298-0.082-4.137c-0.055-1.838-0.082-3.217-0.082-4.136c0-7.266,0.076-11.03,0.229-11.293
		c0.088-0.175,1.609-0.35,4.564-0.525c2.582-0.175,4.376-0.263,5.383-0.263c3.239,0,5.778,1.029,7.616,3.086
		c1.773,1.97,2.66,4.596,2.66,7.879C188.616,45.944,187.816,48.396,186.219,50.212 M192.325,30.286
		c-3.108-3.283-7.08-4.925-11.916-4.925c-1.029,0-2.572,0.044-4.629,0.132c-2.059,0.087-3.602,0.131-4.629,0.131
		c-1.204,0-2.993-0.011-5.367-0.033c-2.375-0.021-4.153-0.033-5.335-0.033c-0.591,0-0.875,0.241-0.854,0.723l0.032,0.492
		c0.504,7.835,0.755,15.166,0.755,21.995c0,2.407-0.104,6.019-0.311,10.833c-0.209,4.815-0.313,8.416-0.313,10.801
		c0,0.681,0.273,1.02,0.82,1.02c0.372,0,0.941-0.033,1.707-0.099c0.766-0.065,1.346-0.101,1.74-0.101
		c0.46,0,1.153,0.049,2.085,0.148c0.93,0.098,1.625,0.146,2.085,0.146c0.415,0,0.623-0.187,0.623-0.56
		c0-1.159-0.071-2.897-0.213-5.219c-0.143-2.32-0.214-4.063-0.214-5.222c0-0.896,0.35-1.347,1.051-1.347
		c1.269,0,3.168,0.049,5.696,0.147c2.527,0.099,4.415,0.146,5.662,0.146c5.078,0,9.05-1.587,11.917-4.76
		c2.779-3.086,4.169-7.201,4.169-12.344C196.888,37.53,195.367,33.503,192.325,30.286 M153.128,59.798
		c-0.186-4.815-0.279-8.426-0.279-10.833c0-2.517,0.082-6.298,0.246-11.342c0.164-5.045,0.246-8.826,0.246-11.342
		c0-0.526-0.274-0.788-0.821-0.788c-0.744,0-1.866-0.044-3.364-0.132c-1.5-0.087-2.622-0.131-3.365-0.131
		c-0.394,0-0.755,0.427-1.084,1.28c-5.274,13.964-9.4,24.49-12.376,31.581c-0.722,1.751-1.193,2.626-1.411,2.626
		c-0.176,0-0.712-1.071-1.609-3.217c-3.808-9.148-8.36-19.543-13.656-31.187c-0.395-0.897-0.701-1.346-0.92-1.346
		c-1.51,0-3.753,0.197-6.729,0.591c-0.504,0.066-0.755,0.307-0.755,0.723c0,2.516,0.115,6.297,0.344,11.342
		c0.23,5.044,0.345,8.825,0.345,11.342c0,2.429-0.115,6.068-0.345,10.915c-0.229,4.848-0.344,8.486-0.344,10.915
		c0,0.416,0.273,0.624,0.82,0.624c0.394,0,0.979-0.033,1.757-0.1c0.776-0.064,1.362-0.1,1.756-0.1c0.372,0,0.941,0.033,1.707,0.1
		c0.766,0.065,1.335,0.1,1.707,0.1c0.547,0,0.821-0.361,0.821-1.083c0-2.823-0.05-7.06-0.148-12.705
		c-0.098-5.646-0.148-9.881-0.148-12.704c0-0.35,0.087-0.591,0.263-0.722c0.218,0.153,0.361,0.306,0.427,0.459
		c3.764,8.58,6.554,15.036,8.371,19.37c1.379,3.193,2.44,5.679,3.184,7.451c0.219,0.371,1.357,0.559,3.414,0.559
		c1.423,0,2.211-0.145,2.364-0.427c1.269-2.978,2.243-5.461,2.922-7.452c4.157-10.353,6.795-16.72,7.911-19.106
		c0.109-0.24,0.263-0.361,0.46-0.361c0.175,0,0.262,0.208,0.262,0.624c0,2.779-0.087,6.949-0.262,12.507
		c-0.176,5.559-0.263,9.729-0.263,12.508c0,0.723,0.273,1.083,0.821,1.083c0.394,0,0.995-0.033,1.805-0.099
		c0.81-0.066,1.412-0.1,1.806-0.1c0.395,0,0.99,0.032,1.789,0.1c0.799,0.064,1.395,0.099,1.789,0.099
		c0.547,0,0.821-0.272,0.821-0.821C153.407,68.213,153.313,64.612,153.128,59.798 M100.75,59.403
		c-0.186-5.033-0.279-8.811-0.279-11.326c0-2.45,0.087-6.127,0.263-11.03c0.174-4.902,0.262-8.579,0.262-11.03
		c0-0.438-0.284-0.657-0.853-0.657c-0.394,0-0.985,0.033-1.773,0.099c-0.788,0.065-1.379,0.098-1.773,0.098
		c-0.438,0-1.083-0.033-1.937-0.098c-0.853-0.066-1.488-0.099-1.904-0.099c-0.503,0-0.755,0.274-0.755,0.821
		c0,2.429,0.115,6.079,0.345,10.948c0.23,4.87,0.345,8.519,0.345,10.948c0,2.517-0.115,6.287-0.345,11.311
		c-0.229,5.021-0.345,8.78-0.345,11.275c0,0.504,0.274,0.755,0.821,0.755c0.394,0,0.996-0.033,1.806-0.099
		c0.809-0.065,1.422-0.101,1.838-0.101c0.395,0,0.996,0.033,1.805,0.101c0.81,0.063,1.412,0.099,1.806,0.099
		c0.635,0,0.952-0.229,0.952-0.688C101.029,68.213,100.937,64.438,100.75,59.403"/>
	<path fill="#808285" d="M730.417,107.19c0-0.664,0.393-1.778,1.18-3.342s1.713-3.078,2.779-4.551
		c1.723-2.363,3.139-3.545,4.25-3.545c0.611,0,1.084,0.346,1.416,1.037c1.33-1.018,1.996-1.83,1.996-2.441
		c0-0.395-0.176-0.729-0.525-1.006c-0.349-0.275-0.766-0.412-1.246-0.412c-1.362,0-2.883,0.891-4.559,2.672
		c-1.676,1.78-3.338,4.277-4.99,7.49l0.74-3.82c0.436-2.049,0.652-3.313,0.652-3.795c0-0.778-0.308-1.168-0.919-1.168
		c-0.577,0-1.327,0.156-2.245,0.473c0.289,0.342,0.434,0.767,0.434,1.273c0,0.937-0.201,2.377-0.604,4.319l-0.656,3.271
		c-0.314,1.602-0.476,2.604-0.476,3.006c0,0.789,0.449,1.184,1.349,1.184c0.358,0,0.84-0.141,1.438-0.42L730.417,107.19z
		 M716.13,96.144c1.006-1.273,2.104-1.912,3.295-1.912c0.998,0,1.498,0.561,1.498,1.678c0,1.248-0.654,2.349-1.965,3.301
		c-1.31,0.95-2.877,1.477-4.707,1.57C714.498,98.963,715.123,97.418,716.13,96.144 M720.654,100.229
		c1.887-1.209,2.83-2.597,2.83-4.162c0-0.953-0.341-1.715-1.019-2.283c-0.68-0.567-1.582-0.854-2.713-0.854
		c-2.338,0-4.336,0.901-5.994,2.704c-1.658,1.806-2.487,3.976-2.487,6.515c0,1.76,0.456,3.146,1.372,4.162
		c0.914,1.017,2.16,1.522,3.736,1.522c2.459,0,5.063-1.05,7.805-3.147c2.746-2.102,4.978-4.75,6.691-7.953l-1.117-0.615
		c-1.819,2.927-3.865,5.283-6.133,7.074c-2.266,1.791-4.342,2.688-6.223,2.688c-2.173,0-3.259-1.279-3.259-3.839
		C716.597,102.04,718.767,101.437,720.654,100.229 M694.501,99.129c0.027-0.254,0.055-0.521,0.08-0.802
		c0.131-1.277,0.197-2.18,0.197-2.705c0-0.997-0.345-1.496-1.023-1.496c-0.324,0-0.76,0.098-1.301,0.289
		c-0.43,0.148-0.736,0.254-0.92,0.314c0.42,0.532,0.631,1.265,0.631,2.191c0,0.666-0.066,1.604-0.197,2.811l-0.289,2.852
		c-0.229,2.24-0.342,3.502-0.342,3.781c0,0.979,0.441,1.471,1.326,1.471c0.352,0,0.779-0.105,1.287-0.314
		c-0.113-0.191-0.17-0.395-0.17-0.604c0-0.523,0.336-1.374,1.01-2.548c0.186-0.323,0.592-1.052,1.223-2.181
		c2.564-4.613,4.425-6.92,5.58-6.92c0.455,0,0.775,0.291,0.959,0.873c0.185,0.582,0.275,1.59,0.275,3.026l0.014,1.129
		c0,2.651,0.226,4.517,0.676,5.595c0.451,1.076,1.232,1.614,2.345,1.614c1.209,0,2.573-0.88,4.098-2.64s3.248-4.456,5.174-8.09
		l-1.104-0.645c-2.162,3.625-3.724,6.036-4.683,7.235c-0.959,1.198-1.813,1.8-2.565,1.8c-0.5,0-0.844-0.354-1.031-1.059
		s-0.281-1.978-0.281-3.813l-0.026-1.589c0-3.854-0.968-5.778-2.9-5.778c-2.479,0-5.271,3.288-8.377,9.862L694.501,99.129z
		 M686.041,104.474c-0.891,0.641-1.709,0.959-2.463,0.959c-1.461,0-2.191-1.016-2.191-3.047c0-1.839,0.527-4.562,1.588-8.168
		c0.045-0.141,0.109-0.354,0.197-0.644h7.381c0.988,0,1.664-0.138,2.027-0.412c0.363-0.272,0.654-0.858,0.873-1.756
		c-0.641,0.315-1.566,0.475-2.783,0.475h-6.936c0.735-2.071,1.444-3.547,2.129-4.425c-0.289-0.02-0.498-0.027-0.631-0.027
		c-1.119,0-1.961,0.254-2.521,0.758c-0.561,0.506-1.041,1.435-1.443,2.785l-0.264,0.909h-1.981c-0.795,0-1.359,0.116-1.693,0.353
		c-0.332,0.234-0.752,0.813-1.26,1.735c0.551-0.263,1.291-0.395,2.219-0.395h2.221l-0.604,2.206
		c-0.867,3.037-1.301,5.379-1.301,7.025c0,1.479,0.329,2.688,0.991,3.622c0.658,0.938,1.517,1.405,2.566,1.405
		c1.189,0,2.51-0.52,3.959-1.559c1.447-1.035,2.172-1.982,2.172-2.842c0-0.324-0.117-0.701-0.354-1.129
		C687.56,103.112,686.927,103.835,686.041,104.474 M666.625,107.19c0-0.664,0.395-1.778,1.182-3.342s1.713-3.078,2.779-4.551
		c1.723-2.363,3.139-3.545,4.248-3.545c0.613,0,1.084,0.346,1.418,1.037c1.33-1.018,1.996-1.83,1.996-2.441
		c0-0.395-0.176-0.729-0.525-1.006c-0.349-0.275-0.766-0.412-1.246-0.412c-1.362,0-2.883,0.891-4.559,2.672
		c-1.676,1.78-3.34,4.277-4.992,7.49l0.742-3.82c0.436-2.049,0.65-3.313,0.65-3.795c0-0.778-0.306-1.168-0.918-1.168
		c-0.578,0-1.326,0.156-2.244,0.473c0.287,0.342,0.432,0.767,0.432,1.273c0,0.937-0.199,2.377-0.604,4.319l-0.656,3.271
		c-0.314,1.602-0.474,2.604-0.474,3.006c0,0.789,0.447,1.184,1.347,1.184c0.358,0,0.84-0.141,1.438-0.42L666.625,107.19z
		 M653.494,97.081c-3.541,5.496-5.939,8.245-7.191,8.245c-1.158,0-1.735-0.884-1.735-2.651c0-2.206,0.479-4.111,1.446-5.719
		c0.963-1.605,2.107-2.41,3.433-2.41c1.219,0,2.748,0.6,4.59,1.799C653.716,96.767,653.537,97.011,653.494,97.081 M653.335,102.136
		c0,3.151,0.945,4.729,2.838,4.729c1.496,0,3.285-0.968,5.369-2.896c2.084-1.931,3.937-4.34,5.555-7.229l-1.022-0.709
		c-1.584,2.442-3.197,4.452-4.84,6.032c-1.642,1.58-2.935,2.371-3.879,2.371c-0.896,0-1.341-0.959-1.341-2.875
		c0-1.664,0.127-3.117,0.381-4.359l0.226-1.115c0.262-1.322,0.643-2.363,1.143-3.125c-0.235-0.01-0.408-0.016-0.514-0.016
		c-1.627,0-2.557,0.408-2.783,1.224c-1.543-0.823-2.975-1.233-4.299-1.233c-2.184,0-4.104,1.041-5.766,3.125
		c-1.658,2.084-2.488,4.494-2.488,7.234c0,1.374,0.277,2.477,0.834,3.303c0.557,0.827,1.299,1.24,2.229,1.24
		c1.218,0,2.646-0.813,4.291-2.438c1.646-1.623,3.025-3.596,4.146-5.916C653.363,100.597,653.335,101.479,653.335,102.136
		 M630.134,97.106c1.435-1.383,2.767-2.075,3.99-2.075c0.979,0,1.777,0.416,2.391,1.247c0.611,0.832,0.92,1.918,0.92,3.257
		c0,1.856-0.541,3.433-1.623,4.729c-1.079,1.295-2.391,1.941-3.932,1.941c-1.287,0-2.373-0.518-3.258-1.55L630.134,97.106z
		 M631.38,107.507c2.346,0,4.373-0.894,6.08-2.68c1.707-1.785,2.562-3.907,2.562-6.367c0-1.576-0.464-2.893-1.392-3.945
		c-0.93-1.056-2.09-1.584-3.479-1.584c-1.595,0-3.136,0.719-4.621,2.154l1.01-5.068c-1.496,0.597-3.055,0.894-4.674,0.894
		c-1.305,0-2.277-0.214-2.916-0.644c0.219,0.988,0.51,1.664,0.873,2.027c0.362,0.363,0.926,0.545,1.688,0.545
		c0.517,0,1.154-0.078,1.918-0.236l-3.836,19.277c-0.287,1.453-0.434,2.499-0.434,3.139c0,0.822,0.363,1.233,1.09,1.233
		c0.465,0,1.139-0.146,2.021-0.435c-0.228-0.42-0.341-0.89-0.341-1.404c0-0.813,0.107-1.768,0.328-2.862l0.959-4.858
		C629.056,107.235,630.113,107.507,631.38,107.507 M605.539,96.144c1.008-1.273,2.104-1.912,3.297-1.912
		c0.998,0,1.496,0.561,1.496,1.678c0,1.248-0.654,2.349-1.963,3.301c-1.31,0.95-2.877,1.477-4.707,1.57
		C603.906,98.963,604.533,97.418,605.539,96.144 M610.063,100.229c1.887-1.209,2.829-2.597,2.829-4.162
		c0-0.953-0.34-1.715-1.018-2.283c-0.68-0.567-1.582-0.854-2.713-0.854c-2.336,0-4.334,0.901-5.994,2.704
		c-1.658,1.806-2.486,3.976-2.486,6.515c0,1.76,0.457,3.146,1.371,4.162c0.914,1.017,2.16,1.522,3.736,1.522
		c2.459,0,5.063-1.05,7.807-3.147c2.744-2.101,4.976-4.75,6.689-7.953l-1.117-0.615c-1.82,2.927-3.863,5.283-6.131,7.074
		c-2.269,1.791-4.342,2.688-6.226,2.688c-2.172,0-3.258-1.279-3.258-3.839C606.007,102.04,608.175,101.437,610.063,100.229
		 M603.492,96.083c-2.426,3.868-4.17,6.396-5.232,7.583c-1.063,1.187-2.121,1.778-3.172,1.778c-1.086,0-1.629-0.739-1.629-2.219
		c0-0.535,0.137-1.512,0.406-2.93l3.047-15.797c-0.988,0.656-2.146,0.982-3.467,0.982c-1.322,0-2.508-0.297-3.56-0.893v0.303
		c0,1.682,1.006,2.521,3.021,2.521c0.254,0,0.551-0.025,0.893-0.079l-2.612,13.157c-0.263,1.313-0.396,2.328-0.396,3.047
		c0,1.277,0.314,2.313,0.945,3.104c0.631,0.793,1.459,1.188,2.481,1.188c1.408,0,3.027-0.979,4.857-2.937
		c1.83-1.955,3.649-4.654,5.463-8.096L603.492,96.083z M588.507,98.683c1.892,0,3.599-0.578,5.121-1.732l-0.67-1.063
		c-1.33,0.779-2.639,1.169-3.926,1.169c-1.263,0-2.461-0.271-3.601-0.813c-1.231-1.863-3.032-2.888-5.396-3.071
		c-0.244,0.48-0.365,0.87-0.365,1.168c0,0.569,0.353,1.146,1.058,1.732c0.702,0.587,1.606,1.063,2.711,1.433
		c0.289,0.832,0.434,1.685,0.434,2.562c0,1.769-0.479,3.275-1.438,4.522c-0.959,1.248-2.125,1.87-3.5,1.87
		c-0.91,0-1.65-0.335-2.22-1.005s-0.854-1.543-0.854-2.621c0-0.806,0.1-1.733,0.301-2.784l3.1-15.558
		c-1.819,0.569-3.278,0.854-4.373,0.854c-1.252,0-2.161-0.276-2.729-0.827c0,1.961,0.938,2.941,2.811,2.941
		c0.322,0,0.699-0.04,1.129-0.119l-2.204,11.137c-0.386,1.942-0.578,3.437-0.578,4.478c0,1.437,0.479,2.608,1.438,3.521
		c0.959,0.91,2.199,1.365,3.726,1.365c2.082,0,3.895-0.813,5.436-2.438c1.541-1.623,2.313-3.533,2.313-5.729
		c0-0.446-0.063-0.885-0.186-1.313C586.818,98.572,587.64,98.683,588.507,98.683 M562.363,97.081
		c-3.541,5.496-5.938,8.245-7.193,8.245c-1.156,0-1.734-0.884-1.734-2.651c0-2.206,0.482-4.111,1.445-5.719
		c0.965-1.605,2.109-2.41,3.435-2.41c1.219,0,2.747,0.6,4.588,1.799C562.585,96.767,562.408,97.011,562.363,97.081 M562.207,102.136
		c0,3.151,0.943,4.729,2.836,4.729c1.496,0,3.287-0.968,5.371-2.896c2.082-1.931,3.936-4.34,5.555-7.229l-1.024-0.709
		c-1.584,2.442-3.195,4.452-4.839,6.032c-1.643,1.58-2.936,2.371-3.881,2.371c-0.893,0-1.338-0.959-1.338-2.875
		c0-1.664,0.127-3.117,0.381-4.359l0.224-1.115c0.264-1.322,0.645-2.363,1.143-3.125c-0.236-0.01-0.406-0.016-0.512-0.016
		c-1.629,0-2.558,0.408-2.785,1.224c-1.541-0.823-2.975-1.233-4.297-1.233c-2.185,0-4.105,1.041-5.767,3.125
		c-1.66,2.084-2.489,4.494-2.489,7.234c0,1.374,0.276,2.477,0.836,3.303c0.557,0.827,1.299,1.24,2.229,1.24
		c1.218,0,2.648-0.813,4.291-2.438c1.646-1.623,3.025-3.596,4.148-5.916C562.232,100.597,562.207,101.479,562.207,102.136
		 M542.679,91.803c0,0.429,0.177,0.642,0.525,0.642c0.522,0,1.531-0.619,3.02-1.861c0.98-0.813,1.664-1.825,2.05-3.033
		c-0.621,0.588-1.48,1.163-2.58,1.729c-1.099,0.564-1.941,0.861-2.527,0.888l-0.184-0.013
		C542.781,90.64,542.679,91.188,542.679,91.803 M553.58,96.118c-1.707,2.824-3.473,5.158-5.293,6.998
		c-1.82,1.842-3.277,2.763-4.373,2.763c-0.918,0-1.377-0.542-1.377-1.627c0-0.367,0.125-1.168,0.379-2.401l0.514-2.558
		c0.254-1.26,0.381-2.226,0.381-2.899c0-0.908-0.323-1.362-0.973-1.362c-0.287,0-1.002,0.131-2.141,0.394
		c0.299,0.315,0.446,0.725,0.446,1.223c0,0.842-0.215,2.304-0.645,4.388l-0.289,1.444c-0.176,0.857-0.262,1.483-0.262,1.879
		c0,1.041,0.299,1.882,0.897,2.521c0.601,0.64,1.392,0.959,2.369,0.959c1.611,0,3.428-0.979,5.449-2.937
		c2.021-1.959,4.021-4.67,6.002-8.139L553.58,96.118z M541.681,96.083c-2.424,3.868-4.168,6.396-5.231,7.583
		s-2.121,1.778-3.17,1.778c-1.088,0-1.629-0.739-1.629-2.219c0-0.535,0.135-1.512,0.405-2.93l3.048-15.797
		c-0.988,0.656-2.146,0.982-3.468,0.982s-2.508-0.297-3.559-0.893v0.303c0,1.682,1.006,2.521,3.02,2.521
		c0.255,0,0.554-0.025,0.896-0.079l-2.613,13.157c-0.264,1.313-0.395,2.328-0.395,3.047c0,1.277,0.313,2.313,0.944,3.104
		c0.632,0.793,1.457,1.188,2.48,1.188c1.41,0,3.029-0.979,4.858-2.937c1.828-1.955,3.648-4.654,5.462-8.096L541.681,96.083z
		 M517.074,96.144c1.008-1.273,2.104-1.912,3.297-1.912c0.998,0,1.496,0.561,1.496,1.678c0,1.248-0.654,2.349-1.963,3.301
		c-1.31,0.95-2.879,1.477-4.707,1.57C515.441,98.963,516.066,97.418,517.074,96.144 M521.597,100.229
		c1.888-1.209,2.83-2.597,2.83-4.162c0-0.953-0.34-1.715-1.018-2.283c-0.681-0.567-1.582-0.854-2.713-0.854
		c-2.336,0-4.334,0.901-5.994,2.704c-1.658,1.806-2.486,3.976-2.486,6.515c0,1.76,0.457,3.146,1.371,4.162
		c0.914,1.017,2.16,1.522,3.736,1.522c2.459,0,5.063-1.05,7.807-3.147c2.744-2.101,4.975-4.75,6.689-7.953l-1.117-0.615
		c-1.82,2.927-3.863,5.283-6.131,7.074c-2.269,1.791-4.345,2.688-6.226,2.688c-2.172,0-3.258-1.279-3.258-3.839
		C517.542,102.04,519.71,101.437,521.597,100.229 M501.08,107.19c0-0.664,0.395-1.778,1.182-3.342
		c0.785-1.563,1.713-3.078,2.779-4.551c1.723-2.363,3.139-3.545,4.248-3.545c0.611,0,1.084,0.346,1.416,1.037
		c1.332-1.018,1.996-1.83,1.996-2.441c0-0.395-0.176-0.729-0.523-1.006c-0.35-0.275-0.766-0.412-1.246-0.412
		c-1.365,0-2.885,0.891-4.559,2.672c-1.676,1.78-3.34,4.277-4.992,7.49l0.742-3.82c0.436-2.049,0.649-3.313,0.649-3.795
		c0-0.778-0.305-1.168-0.918-1.168c-0.577,0-1.325,0.156-2.245,0.473c0.288,0.342,0.434,0.767,0.434,1.273
		c0,0.937-0.201,2.377-0.604,4.319l-0.655,3.271c-0.314,1.602-0.474,2.604-0.474,3.006c0,0.789,0.447,1.184,1.347,1.184
		c0.358,0,0.84-0.141,1.438-0.42L501.08,107.19z M477.457,107.19c0-0.664,0.395-1.778,1.182-3.342s1.713-3.078,2.779-4.551
		c1.723-2.363,3.139-3.545,4.248-3.545c0.613,0,1.084,0.346,1.416,1.037c1.332-1.018,1.996-1.83,1.996-2.441
		c0-0.395-0.174-0.729-0.523-1.006c-0.349-0.275-0.766-0.412-1.246-0.412c-1.364,0-2.885,0.891-4.561,2.672
		c-1.674,1.78-3.338,4.277-4.99,7.49l0.742-3.82c0.436-2.049,0.65-3.313,0.65-3.795c0-0.778-0.306-1.168-0.918-1.168
		c-0.578,0-1.326,0.156-2.244,0.473c0.287,0.342,0.432,0.767,0.432,1.273c0,0.937-0.201,2.377-0.604,4.319l-0.656,3.271
		c-0.314,1.602-0.474,2.604-0.474,3.006c0,0.789,0.447,1.184,1.347,1.184c0.358,0,0.84-0.141,1.438-0.42L477.457,107.19z
		 M465.06,101.886c0,3.477,1.005,5.215,3.009,5.215c2.977,0,6.26-3.453,9.85-10.355l-1.104-0.654
		c-3.152,5.766-5.753,8.646-7.802,8.646c-0.928,0-1.393-0.961-1.393-2.881c0-1.26,0.145-2.607,0.434-4.051l0.133-0.629
		c0.054-0.253,0.136-0.594,0.248-1.021c0.158-0.61,0.246-0.966,0.265-1.063c0.131-0.506,0.215-0.823,0.25-0.956
		c0.067-0.219,0.104-0.385,0.104-0.496c0-0.474-0.385-0.709-1.153-0.709c-0.5,0-1.107,0.102-1.826,0.303
		c0.104,0.175,0.158,0.35,0.158,0.522c0,1.249-0.921,3.347-2.759,6.29c-2.25,3.615-4.104,5.426-5.565,5.426
		c-0.896,0-1.342-0.646-1.342-1.939c0-0.838,0.192-2.057,0.577-3.655l0.197-0.8c0.045-0.2,0.146-0.566,0.303-1.102
		c0.509-1.781,0.763-2.86,0.763-3.235c0-0.604-0.392-0.904-1.17-0.904l-1.812,0.013c0.166,0.309,0.25,0.592,0.25,0.854
		c0,0.264-0.127,0.894-0.383,1.892c-0.928,3.689-1.393,6.229-1.393,7.608c0,1.076,0.299,1.951,0.895,2.624
		c0.596,0.675,1.369,1.011,2.324,1.011c1.182,0,2.518-0.778,4.004-2.338c1.488-1.56,2.836-3.586,4.045-6.08
		C465.095,100.405,465.06,101.229,465.06,101.886 M446.677,98.801c-0.002,2.065-0.535,3.845-1.604,5.337
		c-1.069,1.492-2.342,2.238-3.82,2.24c-1.094-0.002-1.988-0.402-2.684-1.203c-0.695-0.8-1.045-1.822-1.047-3.064
		c0.002-1.717,0.577-3.242,1.729-4.582c1.15-1.338,2.471-2.008,3.959-2.01c0.297,0.002,0.67,0.049,1.115,0.146
		c0.613,0.479,1.283,0.831,2.01,1.051C446.563,97.388,446.675,98.083,446.677,98.801 M452.625,98.433
		c1.463,0,2.891-0.484,4.281-1.457l-0.656-1.115c-1.189,0.69-2.299,1.037-3.322,1.037c-1.576,0-3.09-0.496-4.543-1.483
		c-1.418-2.015-3.194-3.104-5.332-3.282c-0.287,0.387-0.434,0.788-0.434,1.208c0,0.271,0.109,0.604,0.328,0.998
		c-0.332-0.078-0.646-0.118-0.945-0.118c-1.941,0-3.631,0.749-5.063,2.246c-1.431,1.497-2.146,3.266-2.146,5.307
		c0,1.793,0.555,3.254,1.662,4.379c1.104,1.125,2.541,1.688,4.301,1.688c2.303,0,4.312-0.941,6.027-2.822
		c1.715-1.883,2.572-4.088,2.572-6.619c0-0.166-0.015-0.354-0.039-0.563C450.55,98.231,451.654,98.433,452.625,98.433
		 M432.404,92.996c1.731-1.995,2.6-3.418,2.6-4.269c0-0.762-0.356-1.143-1.076-1.143c-0.43,0-1.016,0.166-1.76,0.499
		c0.289,0.271,0.434,0.587,0.434,0.944c0,0.646-0.647,1.785-1.948,3.412c-1.302,1.631-2.813,3.201-4.537,4.717
		c-2.258-6.872-4.229-10.309-5.908-10.309c-0.475,0-1.17,0.318-2.088,0.957c1.121,0.674,2.221,2.016,3.303,4.02
		c1.08,2.006,1.89,4.201,2.422,6.593l-1.457,7.38c-0.184,0.901-0.274,1.449-0.274,1.643c0,0.367,0.231,0.552,0.694,0.552
		c0.72,0,1.523-0.224,2.416-0.67c-0.104-0.279-0.155-0.544-0.155-0.788c0-0.254,0.082-0.792,0.248-1.614l1.286-6.5
		C428.736,96.801,430.671,94.992,432.404,92.996"/>
</g>
</svg>
